<?xml version="1.0" encoding="UTF-8"?>
<!DOCTYPE svg PUBLIC "-//W3C//DTD SVG 1.1//EN" "http://www.w3.org/Graphics/SVG/1.1/DTD/svg11.dtd">
<svg xmlns="http://www.w3.org/2000/svg" version="1.1" width="728px" height="730px" style="shape-rendering:geometricPrecision; text-rendering:geometricPrecision; image-rendering:optimizeQuality; fill-rule:evenodd; clip-rule:evenodd" xmlns:xlink="http://www.w3.org/1999/xlink">
<g><path style="opacity:1" fill="#e63232" d="M 707.5,473.5 C 707.5,473.833 707.5,474.167 707.5,474.5C 666.449,592.219 586.782,670.552 468.5,709.5C 468.167,709.5 467.833,709.5 467.5,709.5C 344.939,742.755 233.939,720.255 134.5,642C 42.7604,561.975 -0.406316,460.808 5,338.5C 18.1726,211.22 79.3392,115.053 188.5,50C 291.546,-4.51118 397.213,-10.1778 505.5,33C 608.992,79.4968 677.492,156.997 711,265.5C 729.863,335.202 728.697,404.536 707.5,473.5 Z"/></g>
<g><path style="opacity:1" fill="#161418" d="M 580.5,71.5 C 582.787,74.6163 585.62,77.283 589,79.5C 657.092,133.729 701.092,205.729 721,295.5C 722.982,309.385 725.149,323.051 727.5,336.5C 727.5,355.167 727.5,373.833 727.5,392.5C 724.709,405.922 722.542,419.588 721,433.5C 717.938,444.795 715.938,456.128 715,467.5C 714.156,462.586 713.322,462.92 712.5,468.5C 711.662,468.842 711.328,469.508 711.5,470.5C 710.71,471.609 710.21,472.942 710,474.5C 709.329,473.748 708.496,473.414 707.5,473.5C 728.697,404.536 729.863,335.202 711,265.5C 677.492,156.997 608.992,79.4968 505.5,33C 397.213,-10.1778 291.546,-4.51118 188.5,50C 79.3392,115.053 18.1726,211.22 5,338.5C -0.406316,460.808 42.7604,561.975 134.5,642C 233.939,720.255 344.939,742.755 467.5,709.5C 468.091,710.151 468.757,710.818 469.5,711.5C 447.43,718.075 424.763,722.742 401.5,725.5C 303.68,733.826 216.013,708.326 138.5,649C 136.754,648.529 135.087,647.862 133.5,647C 122.402,634.897 110.402,623.897 97.5,614C 97.9574,613.586 98.2907,613.086 98.5,612.5C 96.1348,608.661 92.8015,606.328 88.5,605.5C 87.8891,602.279 86.7224,599.279 85,596.5C 78.6914,589.522 72.3581,582.522 66,575.5C 65.1779,573.212 64.5112,570.878 64,568.5C 58.6217,562.883 54.1217,556.716 50.5,550C 51.1295,546.959 49.9628,544.459 47,542.5C -13.6622,423.719 -13.6622,305.385 47,187.5C 98.0939,100.072 172.261,42.2389 269.5,14C 366.179,-10.4366 458.012,1.39674 545,49.5C 546.356,48.6198 547.856,48.2865 549.5,48.5C 549.286,50.1439 549.62,51.6439 550.5,53C 552.844,53.8372 554.844,55.1706 556.5,57C 558.878,57.5112 561.212,58.1779 563.5,59C 568.083,64.6263 573.75,68.793 580.5,71.5 Z"/></g>
<g><path style="opacity:1" fill="#000000" d="M 580.5,71.5 C 580.369,70.7611 580.536,70.0944 581,69.5C 581.692,70.4368 581.525,71.1034 580.5,71.5 Z"/></g>
<g><path style="opacity:1" fill="#faf9f9" d="M 327.5,175.5 C 334.168,174.41 340.001,176.076 345,180.5C 354.333,191.167 363.667,201.833 373,212.5C 381.058,223.56 388.725,234.893 396,246.5C 403.111,236.389 411.278,227.223 420.5,219C 426.555,216.632 432.221,217.299 437.5,221C 472.569,257.29 496.069,300.123 508,349.5C 518.65,402.588 505.817,448.921 469.5,488.5C 421.925,532.315 367.592,543.148 306.5,521C 248.48,492.834 218.813,446.334 217.5,381.5C 218.391,347.327 226.558,314.993 242,284.5C 263.316,242.538 291.816,206.204 327.5,175.5 Z"/></g>
<g><path style="opacity:1" fill="#e73232" d="M 328.5,326.5 C 330.989,326.298 333.323,326.798 335.5,328C 352.212,347.71 368.545,367.71 384.5,388C 388.698,390.161 392.698,389.828 396.5,387C 403.207,379.962 409.54,372.628 415.5,365C 419.837,361.63 424.004,361.797 428,365.5C 441.695,392.265 440.362,418.265 424,443.5C 403.369,465.213 378.203,473.379 348.5,468C 311.254,459.254 292.254,435.754 291.5,397.5C 291.743,382.866 295.576,369.199 303,356.5C 310.269,345.402 318.769,335.402 328.5,326.5 Z"/></g>
<g><path style="opacity:1" fill="#000000" d="M 712.5,468.5 C 713.833,469.167 713.833,469.167 712.5,468.5 Z"/></g>
<g><path style="opacity:1" fill="#010006" d="M 711.5,470.5 C 711.328,471.492 711.662,472.158 712.5,472.5C 712.436,476.22 711.936,479.886 711,483.5C 706.514,495.775 702.181,508.108 698,520.5C 695.955,528.921 693.622,537.254 691,545.5C 688.914,550.763 685.914,555.43 682,559.5C 681.429,563.457 680.095,567.124 678,570.5C 665.509,585.38 652.509,600.046 639,614.5C 634.603,620.904 629.436,626.738 623.5,632C 617.833,635.667 612.167,639.333 606.5,643C 604.963,644.11 604.297,645.61 604.5,647.5C 603.127,647.343 601.793,647.51 600.5,648C 591.377,658.461 581.044,667.461 569.5,675C 566.5,678 563.5,681 560.5,684C 558.833,684.333 557.167,684.667 555.5,685C 548.086,689.442 540.419,693.442 532.5,697C 526.731,698.213 521.231,700.046 516,702.5C 512.971,701.601 510.804,702.767 509.5,706C 507.221,706.473 505.221,707.473 503.5,709C 495.562,710.197 487.562,710.864 479.5,711C 461.043,716.281 442.377,720.614 423.5,724C 416.201,725.036 408.868,725.536 401.5,725.5C 424.763,722.742 447.43,718.075 469.5,711.5C 468.757,710.818 468.091,710.151 467.5,709.5C 467.833,709.5 468.167,709.5 468.5,709.5C 469.756,709.904 470.923,710.571 472,711.5C 501.1,703.693 528.6,692.193 554.5,677C 572.859,663.819 590.859,650.152 608.5,636C 615.812,628.858 622.812,621.691 629.5,614.5C 631.754,613.876 633.421,612.543 634.5,610.5C 634.369,609.761 634.536,609.094 635,608.5C 645.277,599.275 655.11,589.608 664.5,579.5C 666.587,578.415 667.92,576.749 668.5,574.5C 669.786,571.883 671.453,569.55 673.5,567.5C 676.012,565.535 677.345,562.868 677.5,559.5C 678.696,554.42 681.362,550.42 685.5,547.5C 687.781,543.561 689.114,539.228 689.5,534.5C 691.082,531.124 691.749,527.458 691.5,523.5C 697.942,507.681 703.942,492.015 709.5,476.5C 709.145,475.478 708.478,474.811 707.5,474.5C 707.5,474.167 707.5,473.833 707.5,473.5C 708.496,473.414 709.329,473.748 710,474.5C 710.21,472.942 710.71,471.609 711.5,470.5 Z"/></g>
<g><path style="opacity:1" fill="#000000" d="M 712.5,472.5 C 712.897,471.475 713.563,471.308 714.5,472C 713.906,472.464 713.239,472.631 712.5,472.5 Z"/></g>
<g><path style="opacity:1" fill="#00003e" d="M 691.5,523.5 C 691.749,527.458 691.082,531.124 689.5,534.5C 689.682,532.409 689.348,530.409 688.5,528.5C 689.275,526.604 690.275,524.937 691.5,523.5 Z"/></g>
<g><path style="opacity:1" fill="#00003e" d="M 689.5,534.5 C 689.114,539.228 687.781,543.561 685.5,547.5C 685.335,543.818 685.501,540.152 686,536.5C 686.816,535.177 687.983,534.511 689.5,534.5 Z"/></g>
<g><path style="opacity:1" fill="#191b1f" d="M 707.5,474.5 C 708.478,474.811 709.145,475.478 709.5,476.5C 703.942,492.015 697.942,507.681 691.5,523.5C 690.275,524.937 689.275,526.604 688.5,528.5C 689.348,530.409 689.682,532.409 689.5,534.5C 687.983,534.511 686.816,535.177 686,536.5C 685.501,540.152 685.335,543.818 685.5,547.5C 681.362,550.42 678.696,554.42 677.5,559.5C 675.229,561.612 673.896,564.279 673.5,567.5C 671.453,569.55 669.786,571.883 668.5,574.5C 666.065,575.27 664.731,576.937 664.5,579.5C 655.11,589.608 645.277,599.275 635,608.5C 634.536,609.094 634.369,609.761 634.5,610.5C 632.205,611.136 630.539,612.469 629.5,614.5C 622.812,621.691 615.812,628.858 608.5,636C 590.859,650.152 572.859,663.819 554.5,677C 528.6,692.193 501.1,703.693 472,711.5C 470.923,710.571 469.756,709.904 468.5,709.5C 586.782,670.552 666.449,592.219 707.5,474.5 Z"/></g>
<g><path style="opacity:1" fill="#00003e" d="M 677.5,559.5 C 677.345,562.868 676.012,565.535 673.5,567.5C 673.896,564.279 675.229,561.612 677.5,559.5 Z"/></g>
<g><path style="opacity:1" fill="#00003e" d="M 668.5,574.5 C 667.92,576.749 666.587,578.415 664.5,579.5C 664.731,576.937 666.065,575.27 668.5,574.5 Z"/></g>
<g><path style="opacity:1" fill="#00003e" d="M 634.5,610.5 C 633.421,612.543 631.754,613.876 629.5,614.5C 630.539,612.469 632.205,611.136 634.5,610.5 Z"/></g>
</svg>
